<mxfile host="Electron" modified="2023-10-04T09:10:19.935Z" agent="5.0 (Windows NT 10.0; Win64; x64) AppleWebKit/537.36 (KHTML, like Gecko) draw.io/20.3.0 Chrome/104.0.5112.114 Electron/20.1.3 Safari/537.36" etag="XUHzvs_-B_TBiFnMbkSB" compressed="false" version="20.3.0" type="device">
  <diagram name="IM017C" id="UesafW_C0I8MMm0gAzIo">
    <mxGraphModel dx="782" dy="531" grid="1" gridSize="2" guides="1" tooltips="1" connect="1" arrows="1" fold="1" page="1" pageScale="1" pageWidth="1169" pageHeight="827" math="0" shadow="0">
      <root>
        <mxCell id="sxMEN0KXAXHLyjsDCc0v-0" />
        <mxCell id="sxMEN0KXAXHLyjsDCc0v-124" value="Connection" style="" parent="sxMEN0KXAXHLyjsDCc0v-0" />
        <object label="Connection" PipingConnector="N" LabelConnector="N" SignalConnector="Y" Direction="270" AuxiliaryConnector="N" id="lbljCHEagKn9i-VnatyL-0">
          <mxCell style="vsdxID=1407;fillColor=none;gradientColor=none;shape=stencil(rVFbDsIgEDwNnyQU4glqvcfGblsilmZBS28vZGMsxg9j/JvZmX1kR5g2TLCg0CpE8hdcbR8nYY5CaztPSDZmJEwnTDt4wpH8be6ZL1CcBV39vUxI3KdKh1YbswPTEzuBzlmiVGmKau9zUKM+jlJJQrJBko8QrZ+rrQ5oRJnXyMHBWElhRVx25ebnw/5zVvPFWRm83jxY5zilvf4eSy5xpKZ7AA==);strokeColor=#00FF00;strokeWidth=1;points=[[0.5,0.5,0,0,0]];labelBackgroundColor=none;rounded=0;html=1;whiteSpace=wrap;aspect=fixed;noLabel=1;snapToPoint=1;container=0;fontSize=16;" parent="sxMEN0KXAXHLyjsDCc0v-124" vertex="1">
            <mxGeometry x="394" y="138" width="12" height="12" as="geometry" />
          </mxCell>
        </object>
        <object label="Connection" PipingConnector="N" LabelConnector="N" SignalConnector="Y" Direction="90" AuxiliaryConnector="N" id="lbljCHEagKn9i-VnatyL-3">
          <mxCell style="vsdxID=1407;fillColor=none;gradientColor=none;shape=stencil(rVFbDsIgEDwNnyQU4glqvcfGblsilmZBS28vZGMsxg9j/JvZmX1kR5g2TLCg0CpE8hdcbR8nYY5CaztPSDZmJEwnTDt4wpH8be6ZL1CcBV39vUxI3KdKh1YbswPTEzuBzlmiVGmKau9zUKM+jlJJQrJBko8QrZ+rrQ5oRJnXyMHBWElhRVx25ebnw/5zVvPFWRm83jxY5zilvf4eSy5xpKZ7AA==);strokeColor=#00FF00;strokeWidth=1;points=[[0.5,0.5,0,0,0]];labelBackgroundColor=none;rounded=0;html=1;whiteSpace=wrap;aspect=fixed;noLabel=1;snapToPoint=1;container=0;fontSize=16;" parent="sxMEN0KXAXHLyjsDCc0v-124" vertex="1">
            <mxGeometry x="394" y="362" width="12" height="12" as="geometry" />
          </mxCell>
        </object>
        <mxCell id="sxMEN0KXAXHLyjsDCc0v-130" value="Label" style="locked=1;" parent="sxMEN0KXAXHLyjsDCc0v-0" />
        <object label="%LabelLines%&amp;nbsp; &amp;nbsp; &amp;nbsp; &amp;nbsp; &amp;nbsp; &amp;nbsp;%LabelIndex%" placeholders="1" LabelLines="1" LabelIndex="B" id="sxMEN0KXAXHLyjsDCc0v-131">
          <mxCell style="rounded=0;whiteSpace=wrap;html=1;fillColor=none;strokeColor=#FF0000;fontColor=#FF0000;fontSize=10;align=left;noLabel=0;" parent="sxMEN0KXAXHLyjsDCc0v-130" vertex="1">
            <mxGeometry x="360" y="256" width="80" height="16" as="geometry" />
          </mxCell>
        </object>
        <object label="%LabelLines%&amp;nbsp; &amp;nbsp; &amp;nbsp; &amp;nbsp; &amp;nbsp; &amp;nbsp;%LabelIndex%" placeholders="1" LabelLines="1" LabelIndex="A" id="sxMEN0KXAXHLyjsDCc0v-132">
          <mxCell style="rounded=0;whiteSpace=wrap;html=1;fillColor=none;strokeColor=#FF0000;fontColor=#FF0000;fontSize=10;align=left;noLabel=0;" parent="sxMEN0KXAXHLyjsDCc0v-130" vertex="1">
            <mxGeometry x="360" y="336" width="80" height="16" as="geometry" />
          </mxCell>
        </object>
        <mxCell id="sxMEN0KXAXHLyjsDCc0v-134" value="Origo" style="locked=1;" parent="sxMEN0KXAXHLyjsDCc0v-0" visible="0" />
        <object label="origo" id="sxMEN0KXAXHLyjsDCc0v-135">
          <mxCell style="vsdxID=1407;fillColor=none;gradientColor=none;shape=stencil(rVFbDsIgEDwNnyQU4glqvcfGblsilmZBS28vZGMsxg9j/JvZmX1kR5g2TLCg0CpE8hdcbR8nYY5CaztPSDZmJEwnTDt4wpH8be6ZL1CcBV39vUxI3KdKh1YbswPTEzuBzlmiVGmKau9zUKM+jlJJQrJBko8QrZ+rrQ5oRJnXyMHBWElhRVx25ebnw/5zVvPFWRm83jxY5zilvf4eSy5xpKZ7AA==);strokeColor=#ff0000;strokeWidth=1;points=[[0.5,0.5,0,0,0]];labelBackgroundColor=none;rounded=0;html=1;whiteSpace=wrap;aspect=fixed;noLabel=1;snapToPoint=1;direction=west;" parent="sxMEN0KXAXHLyjsDCc0v-134" vertex="1">
            <mxGeometry x="396" y="140" width="7.874" height="7.87" as="geometry" />
          </mxCell>
        </object>
        <object label="Symbol" Width="12" Height="14" UoM="mm" id="sxMEN0KXAXHLyjsDCc0v-136">
          <mxCell style="locked=1;" parent="sxMEN0KXAXHLyjsDCc0v-0" />
        </object>
        <mxCell id="sxMEN0KXAXHLyjsDCc0v-137" value="" style="rounded=0;whiteSpace=wrap;html=1;strokeWidth=1;fillColor=none;direction=west;" parent="sxMEN0KXAXHLyjsDCc0v-136" vertex="1">
          <mxGeometry x="304" y="304" width="192" height="64" as="geometry" />
        </mxCell>
        <mxCell id="sxMEN0KXAXHLyjsDCc0v-138" value="" style="triangle;whiteSpace=wrap;html=1;strokeWidth=1;fillColor=none;rotation=90;direction=west;" parent="sxMEN0KXAXHLyjsDCc0v-136" vertex="1">
          <mxGeometry x="319.5" y="128" width="161" height="192" as="geometry" />
        </mxCell>
      </root>
    </mxGraphModel>
  </diagram>
</mxfile>
